<?xml version="1.0" encoding="UTF-8" standalone="no"?><!DOCTYPE svg PUBLIC "-//W3C//DTD SVG 1.1//EN" "http://www.w3.org/Graphics/SVG/1.1/DTD/svg11.dtd"><svg width="100%" height="100%" viewBox="0 0 1024 1024" version="1.1" xmlns="http://www.w3.org/2000/svg" xmlns:xlink="http://www.w3.org/1999/xlink" xml:space="preserve" xmlns:serif="http://www.serif.com/" style="fill-rule:evenodd;clip-rule:evenodd;stroke-linecap:round;stroke-linejoin:round;stroke-miterlimit:1.5;"><path d="M978.948,236.28c0,-110.383 -89.617,-200 -200,-200l-400,0c-110.383,0 -200,89.617 -200,200l0,551.44c0,110.383 89.617,200 200,200l400,0c110.383,0 200,-89.617 200,-200l0,-551.44Z" style="fill:#fff49c;stroke:#000;stroke-width:36px;"/><g><path d="M285.754,212l586.387,0" style="fill:none;stroke:#000;stroke-width:36px;"/><path d="M285.754,812l586.387,0" style="fill:none;stroke:#000;stroke-width:36px;"/><path d="M285.754,692l586.387,0" style="fill:none;stroke:#000;stroke-width:36px;"/><path d="M285.754,332l586.387,0" style="fill:none;stroke:#000;stroke-width:36px;"/><path d="M285.754,452l586.387,0" style="fill:none;stroke:#000;stroke-width:36px;"/><path d="M285.754,572l586.387,0" style="fill:none;stroke:#000;stroke-width:36px;"/></g><ellipse cx="190.138" cy="791.922" rx="153.429" ry="146.406" style="fill:#36b300;stroke:#000;stroke-width:36px;"/><text x="125.314px" y="871.88px" style="font-family:'Arial-BoldMT', 'Arial', sans-serif;font-weight:700;font-size:237.496px;">$</text></svg>